# xmcd
#
# Track frame offsets: 
#        150
#        19399
#        39832
#        66908
#        88996
#        110762
#        133039
#        151921
#        170463
#        208890
#
# Disc length: 3080 seconds
#
# Revision: 0
# Processed by: cddbd v1.5.2PL0 Copyright (c) Steve Scherf et al.
# Submitted via: ExactAudioCopy v0.99pb5
#
DISCID=8d0c060a
DTITLE=Eric Hatcher and The Worker Bees - Bad News
DYEAR=2007
DGENRE=Blues
TTITLE0=Bad News
TTITLE1=Hey Now Mama
TTITLE2=Cryin' Out Loud
TTITLE3=Hangover Blues
TTITLE4=Headcase Woman
TTITLE5=Sweet Tea
TTITLE6=One False Move
TTITLE7=High And Tight
TTITLE8=Little Rabbit Blues
TTITLE9=Buzzin'
EXTD=
EXTT0=
EXTT1=
EXTT2=
EXTT3=
EXTT4=
EXTT5=
EXTT6=
EXTT7=
EXTT8=
EXTT9=
PLAYORDER=
